<mxfile host="app.diagrams.net" modified="2022-09-30T07:03:31.373Z" agent="5.0 (Macintosh; Intel Mac OS X 10_15_7) AppleWebKit/537.36 (KHTML, like Gecko) Chrome/105.0.0.0 Safari/537.36" etag="79piZ6lCUwWxpszoQArM" version="20.3.7" type="github">
  <diagram id="KNPTt2FtTy1nRqzTEt9b" name="หน้า-1">
    <mxGraphModel dx="1078" dy="558" grid="1" gridSize="10" guides="1" tooltips="1" connect="1" arrows="1" fold="1" page="1" pageScale="1" pageWidth="827" pageHeight="1169" math="0" shadow="0">
      <root>
        <mxCell id="0" />
        <mxCell id="1" parent="0" />
        <mxCell id="C6vSoGj43nONrzxHpojI-66" value="เริ่มต้น" style="ellipse;whiteSpace=wrap;html=1;rounded=1;glass=0;strokeWidth=1;shadow=0;" parent="1" vertex="1">
          <mxGeometry x="372.9967741935484" y="30" width="84.17032258064516" height="30.76923076923077" as="geometry" />
        </mxCell>
        <mxCell id="C6vSoGj43nONrzxHpojI-67" value="ดึงข้อมูลจาก Table&lt;br&gt;Request ที่เลขทะเบียนผู้ถือหุ้นตรงกันกับ&amp;nbsp; parameter in : accountId" style="rounded=1;whiteSpace=wrap;html=1;" parent="1" vertex="1">
          <mxGeometry x="323.5799999999999" y="90" width="183" height="60" as="geometry" />
        </mxCell>
        <mxCell id="C6vSoGj43nONrzxHpojI-68" style="edgeStyle=orthogonalEdgeStyle;rounded=0;orthogonalLoop=1;jettySize=auto;html=1;entryX=0.5;entryY=0;entryDx=0;entryDy=0;" parent="1" source="C6vSoGj43nONrzxHpojI-66" target="C6vSoGj43nONrzxHpojI-67" edge="1">
          <mxGeometry relative="1" as="geometry" />
        </mxCell>
        <mxCell id="C6vSoGj43nONrzxHpojI-69" value="" style="edgeStyle=orthogonalEdgeStyle;rounded=0;orthogonalLoop=1;jettySize=auto;html=1;endArrow=classic;endFill=1;" parent="1" source="C6vSoGj43nONrzxHpojI-67" edge="1">
          <mxGeometry relative="1" as="geometry">
            <mxPoint x="415.0999999999999" y="173.85750933944666" as="targetPoint" />
          </mxGeometry>
        </mxCell>
        <mxCell id="0IoLYYVcSCvld4aRIMPD-4" value="GetRequestByAccountID" style="text;html=1;align=center;verticalAlign=middle;resizable=0;points=[];autosize=1;strokeColor=none;fillColor=none;" vertex="1" parent="1">
          <mxGeometry x="665" y="5" width="160" height="30" as="geometry" />
        </mxCell>
        <mxCell id="0IoLYYVcSCvld4aRIMPD-6" value="" style="edgeStyle=orthogonalEdgeStyle;rounded=0;orthogonalLoop=1;jettySize=auto;html=1;" edge="1" parent="1" source="C6vSoGj43nONrzxHpojI-56" target="0IoLYYVcSCvld4aRIMPD-5">
          <mxGeometry relative="1" as="geometry" />
        </mxCell>
        <mxCell id="0IoLYYVcSCvld4aRIMPD-9" value="ใช่" style="edgeLabel;html=1;align=center;verticalAlign=middle;resizable=0;points=[];" vertex="1" connectable="0" parent="0IoLYYVcSCvld4aRIMPD-6">
          <mxGeometry x="-0.2515" y="1" relative="1" as="geometry">
            <mxPoint as="offset" />
          </mxGeometry>
        </mxCell>
        <mxCell id="C6vSoGj43nONrzxHpojI-56" value="มีข้อมูล" style="rhombus;whiteSpace=wrap;html=1;rounded=1;" parent="1" vertex="1">
          <mxGeometry x="378.9977419354839" y="253.8346153846154" width="74.81806451612903" height="61.53846153846154" as="geometry" />
        </mxCell>
        <mxCell id="C6vSoGj43nONrzxHpojI-58" value="ส่ง Error status 404" style="whiteSpace=wrap;html=1;rounded=1;" parent="1" vertex="1">
          <mxGeometry x="553" y="261.526923076923" width="112.22709677419354" height="46.15384615384615" as="geometry" />
        </mxCell>
        <mxCell id="C6vSoGj43nONrzxHpojI-59" value="" style="edgeStyle=orthogonalEdgeStyle;rounded=0;orthogonalLoop=1;jettySize=auto;html=1;endArrow=classic;endFill=1;entryX=0;entryY=0.5;entryDx=0;entryDy=0;" parent="1" source="C6vSoGj43nONrzxHpojI-56" target="C6vSoGj43nONrzxHpojI-58" edge="1">
          <mxGeometry relative="1" as="geometry">
            <Array as="points">
              <mxPoint x="552.9983870967742" y="284.3776923076923" />
              <mxPoint x="562.9983870967742" y="285.3776923076923" />
            </Array>
          </mxGeometry>
        </mxCell>
        <mxCell id="0IoLYYVcSCvld4aRIMPD-10" value="ไม่พบข้อมูล" style="edgeLabel;html=1;align=center;verticalAlign=middle;resizable=0;points=[];" vertex="1" connectable="0" parent="C6vSoGj43nONrzxHpojI-59">
          <mxGeometry x="-0.0966" y="-1" relative="1" as="geometry">
            <mxPoint as="offset" />
          </mxGeometry>
        </mxCell>
        <mxCell id="C6vSoGj43nONrzxHpojI-62" value="ส่งกลับข้อมูลการยื่นเอกสารทั้งหมด" style="whiteSpace=wrap;html=1;rounded=1;" parent="1" vertex="1">
          <mxGeometry x="360.2916129032258" y="629.996923076923" width="112.22709677419354" height="46.15384615384615" as="geometry" />
        </mxCell>
        <mxCell id="C6vSoGj43nONrzxHpojI-65" style="edgeStyle=orthogonalEdgeStyle;rounded=0;orthogonalLoop=1;jettySize=auto;html=1;endArrow=classic;endFill=1;" parent="1" source="C6vSoGj43nONrzxHpojI-62" target="C6vSoGj43nONrzxHpojI-78" edge="1">
          <mxGeometry relative="1" as="geometry">
            <Array as="points" />
          </mxGeometry>
        </mxCell>
        <mxCell id="C6vSoGj43nONrzxHpojI-70" value="ตรวจสอบข้อมูล" style="whiteSpace=wrap;html=1;rounded=1;" parent="1" vertex="1">
          <mxGeometry x="359.9983870967742" y="179.99692307692305" width="112.22709677419354" height="46.15384615384615" as="geometry" />
        </mxCell>
        <mxCell id="C6vSoGj43nONrzxHpojI-54" value="" style="edgeStyle=orthogonalEdgeStyle;rounded=0;orthogonalLoop=1;jettySize=auto;html=1;endArrow=classic;endFill=1;" parent="1" source="C6vSoGj43nONrzxHpojI-70" target="C6vSoGj43nONrzxHpojI-56" edge="1">
          <mxGeometry relative="1" as="geometry" />
        </mxCell>
        <mxCell id="C6vSoGj43nONrzxHpojI-75" value="" style="group" parent="1" vertex="1" connectable="0">
          <mxGeometry x="376.3641935483873" y="710.0038461538462" width="79.4941935483871" height="80.77307692307681" as="geometry" />
        </mxCell>
        <mxCell id="C6vSoGj43nONrzxHpojI-76" value="สิ้นสุด" style="ellipse;whiteSpace=wrap;html=1;rounded=1;glass=0;strokeWidth=1;shadow=0;" parent="C6vSoGj43nONrzxHpojI-75" vertex="1">
          <mxGeometry y="50.0038461538461" width="79.4941935483871" height="30.76923076923077" as="geometry" />
        </mxCell>
        <mxCell id="C6vSoGj43nONrzxHpojI-77" value="" style="edgeStyle=orthogonalEdgeStyle;rounded=0;orthogonalLoop=1;jettySize=auto;html=1;endArrow=classic;endFill=1;" parent="C6vSoGj43nONrzxHpojI-75" source="C6vSoGj43nONrzxHpojI-78" target="C6vSoGj43nONrzxHpojI-76" edge="1">
          <mxGeometry relative="1" as="geometry" />
        </mxCell>
        <mxCell id="C6vSoGj43nONrzxHpojI-78" value="" style="ellipse;whiteSpace=wrap;html=1;aspect=fixed;" parent="C6vSoGj43nONrzxHpojI-75" vertex="1">
          <mxGeometry x="29.001290322580417" width="21.58213399503722" height="21.58213399503722" as="geometry" />
        </mxCell>
        <mxCell id="C6vSoGj43nONrzxHpojI-57" style="edgeStyle=orthogonalEdgeStyle;rounded=0;orthogonalLoop=1;jettySize=auto;html=1;entryX=1;entryY=0.5;entryDx=0;entryDy=0;endArrow=classic;endFill=1;" parent="1" source="C6vSoGj43nONrzxHpojI-58" target="C6vSoGj43nONrzxHpojI-78" edge="1">
          <mxGeometry relative="1" as="geometry">
            <Array as="points">
              <mxPoint x="609" y="721" />
            </Array>
          </mxGeometry>
        </mxCell>
        <mxCell id="0IoLYYVcSCvld4aRIMPD-16" value="" style="edgeStyle=orthogonalEdgeStyle;rounded=0;orthogonalLoop=1;jettySize=auto;html=1;" edge="1" parent="1" source="0IoLYYVcSCvld4aRIMPD-5" target="0IoLYYVcSCvld4aRIMPD-15">
          <mxGeometry relative="1" as="geometry" />
        </mxCell>
        <mxCell id="0IoLYYVcSCvld4aRIMPD-5" value="ทำการเซนเซอร์&lt;br&gt;ข้อมูลอีเมล์ และเบอร์โทรศัพท์" style="whiteSpace=wrap;html=1;rounded=1;" vertex="1" parent="1">
          <mxGeometry x="340.96000000000004" y="370" width="150.89" height="40" as="geometry" />
        </mxCell>
        <mxCell id="0IoLYYVcSCvld4aRIMPD-18" value="" style="edgeStyle=orthogonalEdgeStyle;rounded=0;orthogonalLoop=1;jettySize=auto;html=1;" edge="1" parent="1" source="0IoLYYVcSCvld4aRIMPD-15" target="0IoLYYVcSCvld4aRIMPD-17">
          <mxGeometry relative="1" as="geometry" />
        </mxCell>
        <mxCell id="0IoLYYVcSCvld4aRIMPD-15" value="ตรวจสอบว่า&lt;br&gt;มีข้อมูลอีกหรือไม่" style="whiteSpace=wrap;html=1;rounded=1;" vertex="1" parent="1">
          <mxGeometry x="359.32000000000005" y="450" width="113.59" height="30" as="geometry" />
        </mxCell>
        <mxCell id="0IoLYYVcSCvld4aRIMPD-19" value="" style="edgeStyle=orthogonalEdgeStyle;rounded=0;orthogonalLoop=1;jettySize=auto;html=1;" edge="1" parent="1" source="0IoLYYVcSCvld4aRIMPD-17" target="C6vSoGj43nONrzxHpojI-62">
          <mxGeometry relative="1" as="geometry" />
        </mxCell>
        <mxCell id="0IoLYYVcSCvld4aRIMPD-21" value="ไม่ใช่" style="edgeLabel;html=1;align=center;verticalAlign=middle;resizable=0;points=[];" vertex="1" connectable="0" parent="0IoLYYVcSCvld4aRIMPD-19">
          <mxGeometry x="-0.104" y="1" relative="1" as="geometry">
            <mxPoint as="offset" />
          </mxGeometry>
        </mxCell>
        <mxCell id="0IoLYYVcSCvld4aRIMPD-20" style="edgeStyle=orthogonalEdgeStyle;rounded=0;orthogonalLoop=1;jettySize=auto;html=1;entryX=0;entryY=0.5;entryDx=0;entryDy=0;" edge="1" parent="1" source="0IoLYYVcSCvld4aRIMPD-17" target="0IoLYYVcSCvld4aRIMPD-5">
          <mxGeometry relative="1" as="geometry">
            <Array as="points">
              <mxPoint x="321" y="545" />
              <mxPoint x="321" y="390" />
            </Array>
          </mxGeometry>
        </mxCell>
        <mxCell id="0IoLYYVcSCvld4aRIMPD-22" value="ใช่" style="edgeLabel;html=1;align=center;verticalAlign=middle;resizable=0;points=[];" vertex="1" connectable="0" parent="0IoLYYVcSCvld4aRIMPD-20">
          <mxGeometry x="-0.7729" y="-3" relative="1" as="geometry">
            <mxPoint as="offset" />
          </mxGeometry>
        </mxCell>
        <mxCell id="0IoLYYVcSCvld4aRIMPD-17" value="มี ?" style="rhombus;whiteSpace=wrap;html=1;rounded=1;" vertex="1" parent="1">
          <mxGeometry x="376.11500000000007" y="505" width="80" height="80" as="geometry" />
        </mxCell>
      </root>
    </mxGraphModel>
  </diagram>
</mxfile>
